<svg width="17" height="17" viewBox="0 0 17 17" fill="none" xmlns="http://www.w3.org/2000/svg">
<path d="M8.13054 1.83893C4.40071 1.83893 1.3736 4.86604 1.3736 8.59587C1.3736 12.3257 4.40071 15.3528 8.13054 15.3528C11.8604 15.3528 14.8875 12.3257 14.8875 8.59587C14.8875 4.86604 11.8604 1.83893 8.13054 1.83893ZM8.13054 3.86601C9.25219 3.86601 10.1576 4.77144 10.1576 5.8931C10.1576 7.01475 9.25219 7.92018 8.13054 7.92018C7.00889 7.92018 6.10346 7.01475 6.10346 5.8931C6.10346 4.77144 7.00889 3.86601 8.13054 3.86601ZM8.13054 13.4609C6.4413 13.4609 4.94802 12.596 4.07637 11.2851C4.09664 9.9405 6.77915 9.204 8.13054 9.204C9.47517 9.204 12.1644 9.9405 12.1847 11.2851C11.3131 12.596 9.81978 13.4609 8.13054 13.4609Z" fill="#323232"/>
</svg>
