<svg width="17" height="17" viewBox="0 0 17 17" fill="none" xmlns="http://www.w3.org/2000/svg">
<path d="M12.7014 4.54171H11.35C11.35 3.04842 10.1405 1.83893 8.64725 1.83893C7.15397 1.83893 5.94448 3.04842 5.94448 4.54171H4.59309C3.84982 4.54171 3.2417 5.14983 3.2417 5.8931V14.0014C3.2417 14.7447 3.84982 15.3528 4.59309 15.3528H12.7014C13.4447 15.3528 14.0528 14.7447 14.0528 14.0014V5.8931C14.0528 5.14983 13.4447 4.54171 12.7014 4.54171ZM8.64725 3.19032C9.39052 3.19032 9.99864 3.79844 9.99864 4.54171H7.29587C7.29587 3.79844 7.90399 3.19032 8.64725 3.19032ZM12.7014 14.0014H4.59309V5.8931H5.94448V7.24448C5.94448 7.61612 6.24854 7.92018 6.62017 7.92018C6.9918 7.92018 7.29587 7.61612 7.29587 7.24448V5.8931H9.99864V7.24448C9.99864 7.61612 10.3027 7.92018 10.6743 7.92018C11.046 7.92018 11.35 7.61612 11.35 7.24448V5.8931H12.7014V14.0014Z" fill="#323232"/>
</svg>
