<svg width="17" height="17" viewBox="0 0 17 17" fill="none" xmlns="http://www.w3.org/2000/svg">
<path d="M8.88886 14.6771C8.45303 14.2906 7.96045 13.8886 7.43949 13.4609H7.43274C5.59823 11.9609 3.51911 10.2635 2.60084 8.22967C2.29916 7.58217 2.13928 6.87769 2.1319 6.1634C2.12989 5.18329 2.52298 4.24374 3.22235 3.55708C3.92172 2.87043 4.86833 2.49464 5.84823 2.51465C6.64598 2.51591 7.42654 2.74646 8.09694 3.17885C8.39152 3.37005 8.65805 3.60133 8.88886 3.86603C9.12095 3.60237 9.38755 3.37123 9.68145 3.17885C10.3516 2.74638 11.1319 2.51581 11.9295 2.51465C12.9094 2.49464 13.856 2.87043 14.5554 3.55708C15.2547 4.24374 15.6478 5.18329 15.6458 6.1634C15.6389 6.87883 15.479 7.58451 15.1769 8.23305C14.2586 10.2669 12.1802 11.9636 10.3457 13.4609L10.3389 13.4663C9.81726 13.8913 9.32536 14.2934 8.88953 14.6826L8.88886 14.6771ZM5.84823 3.86603C5.21883 3.85816 4.61176 4.09904 4.159 4.53632C3.72276 4.96483 3.47895 5.55192 3.48324 6.1634C3.49095 6.68402 3.60886 7.19711 3.82926 7.66884C4.26272 8.54637 4.8476 9.34055 5.55701 10.0149C6.22662 10.6905 6.99691 11.3446 7.66315 11.8946C7.84761 12.0467 8.03546 12.2 8.2233 12.3534L8.34154 12.4501C8.52195 12.5974 8.70845 12.7501 8.88886 12.9001L8.89764 12.892L8.9017 12.8886H8.90575L8.91183 12.8839H8.91521H8.91859L8.93075 12.8737L8.95845 12.8514L8.96318 12.8474L8.97062 12.842H8.97467L8.98075 12.8366L9.42941 12.4683L9.54698 12.3717C9.73685 12.2169 9.9247 12.0636 10.1092 11.9115C10.7754 11.3615 11.5464 10.7081 12.216 10.029C12.9255 9.35508 13.5104 8.56111 13.9437 7.68371C14.1681 7.20788 14.2877 6.68943 14.2944 6.1634C14.2972 5.55381 14.0535 4.96897 13.6187 4.54173C13.1668 4.10247 12.5597 3.8596 11.9295 3.86603C11.1605 3.8595 10.4253 4.18183 9.90916 4.75187L8.88886 5.92758L7.86856 4.75187C7.35237 4.18183 6.61722 3.8595 5.84823 3.86603Z" fill="#2E3A59"/>
</svg>
