<svg width="17" height="17" viewBox="0 0 17 17" fill="none" xmlns="http://www.w3.org/2000/svg">
<path d="M13.3441 11.9473H1.87083V13.2987H15.3847V11.9473H13.3441ZM14.709 11.2716C14.5266 8.52149 12.513 6.27143 9.87105 5.72412C9.93862 5.56195 9.97916 5.37951 9.97916 5.19032C9.97916 4.44705 9.37104 3.83893 8.62777 3.83893C7.88451 3.83893 7.27638 4.44705 7.27638 5.19032C7.27638 5.37951 7.31692 5.56195 7.38449 5.72412C4.74253 6.27143 2.72896 8.52149 2.54652 11.2716H14.709ZM8.62777 6.93361C10.6211 6.93361 12.3238 8.17013 13.0198 9.91342H4.23576C4.93172 8.17013 6.63447 6.93361 8.62777 6.93361Z" fill="#323232"/>
</svg>
