<svg width="17" height="18" viewBox="0 0 17 18" fill="none" xmlns="http://www.w3.org/2000/svg">
<g id="search">
<path id="Vector" d="M10.476 10.2444H9.94224L9.75305 10.062C10.4152 9.29171 10.8139 8.29168 10.8139 7.20381C10.8139 4.77807 8.84762 2.8118 6.42188 2.8118C3.99613 2.8118 2.02986 4.77807 2.02986 7.20381C2.02986 9.62956 3.99613 11.5958 6.42188 11.5958C7.50974 11.5958 8.50977 11.1972 9.28006 10.535L9.4625 10.7242V11.258L12.841 14.6297L13.8478 13.6229L10.476 10.2444V10.2444ZM6.42188 10.2444C4.7394 10.2444 3.38125 8.88629 3.38125 7.20381C3.38125 5.52133 4.7394 4.16319 6.42188 4.16319C8.10435 4.16319 9.4625 5.52133 9.4625 7.20381C9.4625 8.88629 8.10435 10.2444 6.42188 10.2444Z" fill="#323232"/>
</g>
</svg>
