<svg width="16" height="16" viewBox="0 0 16 16" fill="none" xmlns="http://www.w3.org/2000/svg">
<path d="M7.86946 5.19028C6.37617 5.19028 5.16668 6.39977 5.16668 7.89306C5.16668 9.38634 6.37617 10.5958 7.86946 10.5958C9.36274 10.5958 10.5722 9.38634 10.5722 7.89306C10.5722 6.39977 9.36274 5.19028 7.86946 5.19028ZM13.9102 7.21736C13.5993 4.39972 11.3628 2.16317 8.54515 1.85235V0.460419H7.19376V1.85235C4.37612 2.16317 2.13957 4.39972 1.82875 7.21736H0.436818V8.56875H1.82875C2.13957 11.3864 4.37612 13.6229 7.19376 13.9338V15.3257H8.54515V13.9338C11.3628 13.6229 13.5993 11.3864 13.9102 8.56875H15.3021V7.21736H13.9102V7.21736ZM7.86946 12.6229C5.25452 12.6229 3.1396 10.508 3.1396 7.89306C3.1396 5.27812 5.25452 3.1632 7.86946 3.1632C10.4844 3.1632 12.5993 5.27812 12.5993 7.89306C12.5993 10.508 10.4844 12.6229 7.86946 12.6229Z" fill="#323232"/>
</svg>
